<svg width="58" height="58" viewBox="0 0 58 58" fill="none" xmlns="http://www.w3.org/2000/svg">
<rect x="1" y="1" width="56" height="56" rx="14" fill="white" fill-opacity="0.05"/>
<rect x="0.5" y="0.5" width="57" height="57" rx="14.5" stroke="white" stroke-opacity="0.12"/>
<rect x="5" y="5" width="48" height="48" rx="10" fill="white" fill-opacity="0.12"/>
<g opacity="0.4">
<path d="M39 29C39 23.49 34.51 19 29 19C23.49 19 19 23.49 19 29C19 31.9 20.25 34.51 22.23 36.34C22.23 36.35 22.23 36.35 22.22 36.36C22.32 36.46 22.44 36.54 22.54 36.63C22.6 36.68 22.65 36.73 22.71 36.77C22.89 36.92 23.09 37.06 23.28 37.2C23.35 37.25 23.41 37.29 23.48 37.34C23.67 37.47 23.87 37.59 24.08 37.7C24.15 37.74 24.23 37.79 24.3 37.83C24.5 37.94 24.71 38.04 24.93 38.13C25.01 38.17 25.09 38.21 25.17 38.24C25.39 38.33 25.61 38.41 25.83 38.48C25.91 38.51 25.99 38.54 26.07 38.56C26.31 38.63 26.55 38.69 26.79 38.75C26.86 38.77 26.93 38.79 27.01 38.8C27.29 38.86 27.57 38.9 27.86 38.93C27.9 38.93 27.94 38.94 27.98 38.95C28.32 38.98 28.66 39 29 39C29.34 39 29.68 38.98 30.01 38.95C30.05 38.95 30.09 38.94 30.13 38.93C30.42 38.9 30.7 38.86 30.98 38.8C31.05 38.79 31.12 38.76 31.2 38.75C31.44 38.69 31.69 38.64 31.92 38.56C32 38.53 32.08 38.5 32.16 38.48C32.38 38.4 32.61 38.33 32.82 38.24C32.9 38.21 32.98 38.17 33.06 38.13C33.27 38.04 33.48 37.94 33.69 37.83C33.77 37.79 33.84 37.74 33.91 37.7C34.11 37.58 34.31 37.47 34.51 37.34C34.58 37.3 34.64 37.25 34.71 37.2C34.91 37.06 35.1 36.92 35.28 36.77C35.34 36.72 35.39 36.67 35.45 36.63C35.56 36.54 35.67 36.45 35.77 36.36C35.77 36.35 35.77 36.35 35.76 36.34C37.75 34.51 39 31.9 39 29ZM33.94 33.97C31.23 32.15 26.79 32.15 24.06 33.97C23.62 34.26 23.26 34.6 22.96 34.97C21.44 33.43 20.5 31.32 20.5 29C20.5 24.31 24.31 20.5 29 20.5C33.69 20.5 37.5 24.31 37.5 29C37.5 31.32 36.56 33.43 35.04 34.97C34.75 34.6 34.38 34.26 33.94 33.97Z" fill="white"/>
<path d="M29 23.9297C26.93 23.9297 25.25 25.6097 25.25 27.6797C25.25 29.7097 26.84 31.3597 28.95 31.4197C28.98 31.4197 29.02 31.4197 29.04 31.4197C29.06 31.4197 29.09 31.4197 29.11 31.4197C29.12 31.4197 29.13 31.4197 29.13 31.4197C31.15 31.3497 32.74 29.7097 32.75 27.6797C32.75 25.6097 31.07 23.9297 29 23.9297Z" fill="white"/>
</g>
</svg>
